<svg width="20" height="15" viewBox="0 0 20 15" fill="none" xmlns="http://www.w3.org/2000/svg">
            <path
                d="M-0.000488281 1C-0.000488281 0.734784 0.104869 0.48043 0.292405 0.292893C0.479941 0.105357 0.734295 0 0.999512 0H18.9995C19.2647 0 19.5191 0.105357 19.7066 0.292893C19.8942 0.48043 19.9995 0.734784 19.9995 1C19.9995 1.26522 19.8942 1.51957 19.7066 1.70711C19.5191 1.89464 19.2647 2 18.9995 2H0.999512C0.734295 2 0.479941 1.89464 0.292405 1.70711C0.104869 1.51957 -0.000488281 1.26522 -0.000488281 1Z"
                fill="#213f7d"
            />
            <path
                d="M-0.000488281 9C-0.000488281 6.734784 0.104869 0.48043 0.292405 0.292893C0.479941 0.105357 0.734295 0 0.999512 0H18.9995C19.2647 0 19.5191 0.105357 19.7066 0.292893C19.8942 0.48043 19.9995 0.734784 19.9995 1C19.9995 1.26522 19.8942 1.51957 19.7066 1.70711C19.5191 1.89464 19.2647 2 18.9995 2H0.999512C0.734295 2 0.479941 1.89464 0.292405 1.70711C0.104869 1.51957 -0.000488281 1.26522 -0.000488281 1Z"
                fill="#213f7d"
            />
            <path
                d="M-0.000488281 7.03198C-0.000488281 6.76677 0.104869 6.51241 0.292405 6.32488C0.479941 6.13734 0.734295 6.03198 0.999512 6.03198H18.9995C19.2647 6.03198 19.5191 6.13734 19.7066 6.32488C19.8942 6.51241 19.9995 6.76677 19.9995 7.03198C19.9995 7.2972 19.8942 7.55155 19.7066 7.73909C19.5191 7.92663 19.2647 8.03198 18.9995 8.03198H0.999512C0.734295 8.03198 0.479941 7.92663 0.292405 7.73909C0.104869 7.55155 -0.000488281 7.2972 -0.000488281 7.03198Z"
                fill="#213f7d"
            />
            <path
                d="M0.999512 12.064C0.734295 12.064 0.479941 12.1693 0.292405 12.3569C0.104869 12.5444 -0.000488281 12.7987 -0.000488281 13.064C-0.000488281 13.3292 0.104869 13.5835 0.292405 13.7711C0.479941 13.9586 0.734295 14.064 0.999512 14.064H18.9995C19.2647 14.064 19.5191 13.9586 19.7066 13.7711C19.8942 13.5835 19.9995 13.3292 19.9995 13.064C19.9995 12.7987 19.8942 12.5444 19.7066 12.3569C19.5191 12.1693 19.2647 12.064 18.9995 12.064H0.999512Z"
                fill="#000000"
            />
        </svg>